# Blender 3.4.1
# www.blender.org
mtllib MetalTile.mtl
o MetalTile
v -0.500000 0.500000 0.500000
v -0.500000 1.000000 0.500000
v -0.500000 0.500000 -0.500000
v -0.500000 1.000000 -0.500000
v 0.500000 0.500000 0.500000
v 0.500000 1.000000 0.500000
v 0.500000 0.500000 -0.500000
v 0.500000 1.000000 -0.500000
v -0.500000 0.000000 0.500000
v -0.500000 1.000000 0.500000
v -0.500000 0.000000 -0.500000
v -0.500000 1.000000 -0.500000
v 0.500000 0.000000 0.500000
v 0.500000 1.000000 0.500000
v 0.500000 0.000000 -0.500000
v 0.500000 1.000000 -0.500000
vn -0.5774 -0.5774 0.5774
vn -0.5774 0.5774 0.5774
vn -0.5774 0.5774 -0.5774
vn -0.5774 -0.5774 -0.5774
vn 0.5774 0.5774 -0.5774
vn 0.5774 -0.5774 -0.5774
vn 0.5774 0.5774 0.5774
vn 0.5774 -0.5774 0.5774
vn -1.0000 -0.0000 -0.0000
vn -0.0000 -0.0000 -1.0000
vn 1.0000 -0.0000 -0.0000
vn -0.0000 -0.0000 1.0000
vn -0.0000 -1.0000 -0.0000
vn -0.0000 1.0000 -0.0000
vt 1.000000 0.000000
vt 0.000000 -0.000000
vt 1.002893 0.998071
vt 1.000000 0.333333
vt 0.000000 0.333333
vt 1.000000 1.000000
vt 0.000000 -0.000000
vt 1.000000 0.000000
vt -0.002893 0.998071
vt 0.000000 0.333333
vt 1.000000 0.333333
vt 0.000000 -0.000000
vt 1.000000 0.000000
vt 1.002893 0.331405
vt 0.000000 0.333333
vt 1.000000 0.333333
vt 0.000000 1.000000
vt 0.000000 -0.000000
vt 1.000000 0.000000
vt -0.002893 0.331405
vt 1.000000 0.333333
vt 0.000000 0.333333
vt 0.375000 0.000000
vt 0.375000 1.000000
vt 0.125000 0.750000
vt 0.625000 0.000000
vt 0.625000 1.000000
vt 0.875000 0.750000
vt 0.375000 0.250000
vt 0.125000 0.500000
vt 0.625000 0.250000
vt 0.875000 0.500000
vt 0.375000 0.750000
vt 0.625000 0.750000
vt 0.375000 0.500000
vt 0.625000 0.500000
s 1
usemtl Material.001
f 1/1/1 2/4/2 4/10/3 3/7/4
f 3/8/4 4/11/3 8/22/5 7/18/6
f 7/19/6 8/21/5 6/15/7 5/12/8
f 5/13/8 6/16/7 2/5/2 1/2/1
f 3/9/4 7/20/6 5/14/8 1/3/1
f 8/22/5 4/11/3 2/6/2 6/17/7
s 0
usemtl Collision
f 9/23/9 10/26/9 12/31/9 11/29/9
f 11/29/10 12/31/10 16/36/10 15/35/10
f 15/35/11 16/36/11 14/34/11 13/33/11
f 13/33/12 14/34/12 10/27/12 9/24/12
f 11/30/13 15/35/13 13/33/13 9/25/13
f 16/36/14 12/32/14 10/28/14 14/34/14
