# Blender 3.4.1
# www.blender.org
mtllib ConveyorTile.mtl
o MetalTile
v -0.437406 0.063182 0.468750
v -0.437406 0.437867 0.468750
v -0.437406 0.063182 -0.468750
v -0.437406 0.437867 -0.468750
v 0.436950 0.063182 0.468750
v 0.436950 0.437867 0.468750
v 0.436950 0.063182 -0.468750
v 0.436950 0.437867 -0.468750
v 0.436950 0.000000 -0.468750
v 0.436950 0.500000 -0.468750
v 0.436950 0.000000 0.468750
v 0.436950 0.500000 0.468750
v -0.437406 0.000000 -0.468750
v -0.437406 0.500000 0.468750
v -0.437406 0.500000 -0.468750
v -0.437406 0.000000 0.468750
v -0.500000 0.437867 0.468750
v -0.500000 0.437867 -0.468750
v 0.500000 0.437867 -0.468750
v 0.500000 0.437867 0.468750
v -0.500000 0.063182 -0.468750
v 0.500000 0.063182 -0.468750
v 0.500000 0.063182 0.468750
v -0.500000 0.063182 0.468750
v -0.437406 0.437867 -0.503750
v -0.437406 0.063182 -0.503750
v 0.436950 0.437867 -0.503750
v 0.436950 0.063182 -0.503750
v 0.436950 0.437867 0.503750
v 0.436950 0.063182 0.503750
v -0.437406 0.437867 0.503750
v -0.437406 0.063182 0.503750
vn -0.5774 0.5774 0.5774
vn -0.5774 0.5774 -0.5774
vn 0.5774 0.5774 -0.5774
vn 0.5774 0.5774 0.5774
vn 0.5774 -0.5774 -0.5774
vn 0.5774 -0.5774 0.5774
vn -0.5774 -0.5774 -0.5774
vn -0.5774 -0.5774 0.5774
vt 0.000000 0.979167
vt 0.062500 0.020833
vt 0.750000 0.375000
vt 0.812500 0.979167
vt 0.062500 0.375000
vt 0.031250 0.041667
vt 0.312500 0.979167
vt 1.000000 0.979167
vt 0.937500 0.375000
vt 0.375000 0.375000
vt 0.062500 0.312500
vt 0.031250 0.291667
vt 0.000000 0.354167
vt 0.750000 0.958333
vt 0.812500 0.354167
vt 0.062500 0.333333
vt 0.937500 0.020833
vt 0.968750 0.041667
vt 0.312500 0.354167
vt 1.000000 0.354167
vt 0.937500 0.333333
vt 0.375000 0.958333
vt 0.937500 0.312500
vt 0.968750 0.291667
vt 1.000000 0.979167
vt 0.937500 0.020833
vt 0.312500 0.375000
vt 0.281250 0.979167
vt 0.937500 0.375000
vt 0.968750 0.041667
vt 0.781250 0.979167
vt 0.000000 0.979167
vt 0.062500 0.375000
vt 0.687500 0.375000
vt 0.968750 0.291667
vt 0.937500 0.312500
vt 1.000000 0.354167
vt 0.312500 0.958333
vt 0.281250 0.354167
vt 0.937500 0.333333
vt 0.062500 0.020833
vt 0.031250 0.041667
vt 0.781250 0.354167
vt 0.000000 0.354167
vt 0.062500 0.333333
vt 0.062500 0.312500
vt 0.687500 0.958333
vt 0.031250 0.291667
vt 0.937500 0.354167
vt 0.937500 0.375000
vt 0.062500 0.375000
vt 0.062500 0.354167
vt 0.937500 0.979167
vt 0.937500 0.333333
vt 0.062500 0.979167
vt 0.062500 0.333333
vt 0.062500 0.354167
vt 0.062500 0.375000
vt 0.937500 0.979167
vt 0.937500 0.333333
vt 0.937500 0.375000
vt 0.937500 0.354167
vt 0.062500 0.979167
vt 0.062500 0.333333
vt 0.375000 0.333333
vt 0.375000 0.979167
vt 0.375000 1.000000
vt 0.375000 0.354167
vt 0.718750 0.354167
vt 0.687500 1.000000
vt 0.687500 0.333333
vt 0.718750 0.979167
vt 0.750000 1.000000
vt 0.750000 0.354167
vt 0.312500 1.000000
vt 0.343750 0.354167
vt 0.312500 0.333333
vt 0.343750 0.979167
vt 0.750000 0.333333
vt 0.750000 0.979167
vt 0.937500 0.291667
vt 0.937500 0.041667
vt 0.062500 0.291667
vt 0.062500 0.041667
vt 0.937500 0.291667
vt 0.937500 0.041667
vt 0.062500 0.291667
vt 0.062500 0.041667
s 1
usemtl Belt
f 17/66/1 2/7/1 4/19/2 18/68/2
f 19/69/3 8/43/3 6/31/4 20/72/4
f 9/49/5 7/37/5 5/25/6 11/53/6
f 15/62/2 4/20/2 2/8/1 14/59/1
f 8/44/3 10/52/3 12/55/4 6/32/4
f 13/57/7 9/49/5 11/53/6 16/63/8
f 4/21/2 15/61/2 10/51/3 8/45/3
f 3/13/7 13/57/7 16/63/8 1/1/8
f 10/52/3 15/62/2 14/59/1 12/55/4
f 6/33/4 12/56/4 14/60/1 2/9/1
f 21/73/7 18/67/2 4/22/2 3/14/7
f 23/77/6 20/71/4 6/34/4 5/27/6
f 1/3/8 2/10/1 17/65/1 24/79/8
f 22/76/5 19/69/3 20/72/4 23/78/6
f 7/38/5 8/47/3 19/70/3 22/75/5
f 24/80/8 17/66/1 18/68/2 21/74/7
f 1/4/8 24/80/8 21/74/7 3/15/7
f 7/39/5 22/76/5 23/78/6 5/28/6
f 13/58/7 3/16/7 7/40/5 9/50/5
f 11/54/6 5/29/6 1/5/8 16/64/8
usemtl ConveyorBase
f 1/2/8 5/26/6 30/86/6 32/88/8
f 4/23/2 8/46/3 27/83/3 25/81/2
f 26/82/7 25/81/2 27/83/3 28/84/5
f 7/41/5 3/17/7 26/82/7 28/84/5
f 8/48/3 7/42/5 28/84/5 27/83/3
f 3/18/7 4/24/2 25/81/2 26/82/7
f 30/86/6 29/85/4 31/87/1 32/88/8
f 5/30/6 6/35/4 29/85/4 30/86/6
f 6/36/4 2/11/1 31/87/1 29/85/4
f 2/12/1 1/6/8 32/88/8 31/87/1
