# Blender 3.4.1
# www.blender.org
mtllib SandTile.mtl
o SandTile
v -0.500000 0.000000 0.500000
v -0.500000 0.500000 0.500000
v -0.500000 0.000000 -0.500000
v -0.500000 0.500000 -0.500000
v 0.500000 0.000000 0.500000
v 0.500000 0.500000 0.500000
v 0.500000 0.000000 -0.500000
v 0.500000 0.500000 -0.500000
vn -0.5774 -0.5774 0.5774
vn -0.5774 0.5774 0.5774
vn -0.5774 0.5774 -0.5774
vn -0.5774 -0.5774 -0.5774
vn 0.5774 0.5774 -0.5774
vn 0.5774 -0.5774 -0.5774
vn 0.5774 0.5774 0.5774
vn 0.5774 -0.5774 0.5774
vt 1.000000 0.000000
vt 0.000000 -0.000000
vt 1.002893 0.017814
vt 1.000000 0.333333
vt 0.000000 0.333333
vt 1.000000 1.000000
vt 0.000000 -0.000000
vt 1.000000 0.000000
vt -0.002893 0.017814
vt 0.000000 0.333333
vt 1.000000 0.333333
vt 0.000000 -0.000000
vt 1.000000 0.000000
vt 1.002893 0.005382
vt 0.000000 0.333333
vt 1.000000 0.333333
vt 0.000000 1.000000
vt 0.000000 -0.000000
vt 1.000000 0.000000
vt -0.002893 0.005382
vt 1.000000 0.333333
vt 0.000000 0.333333
s 1
usemtl SandTile
f 1/1/1 2/4/2 4/10/3 3/7/4
f 3/8/4 4/11/3 8/22/5 7/18/6
f 7/19/6 8/21/5 6/15/7 5/12/8
f 5/13/8 6/16/7 2/5/2 1/2/1
f 3/9/4 7/20/6 5/14/8 1/3/1
f 8/22/5 4/11/3 2/6/2 6/17/7
